<?xml version="1.0" standalone="no"?>
<!DOCTYPE svg PUBLIC "-//W3C//DTD SVG 20010904//EN"
 "http://www.w3.org/TR/2001/REC-SVG-20010904/DTD/svg10.dtd">
<svg version="1.0" xmlns="http://www.w3.org/2000/svg"
 width="500.000000pt" height="500.000000pt" viewBox="0 0 500.000000 500.000000"
 preserveAspectRatio="xMidYMid meet">

<g transform="translate(0.000000,500.000000) scale(0.100000,-0.100000)"
fill="#000000" stroke="none">
<path d="M0 2500 l0 -2500 2500 0 2500 0 0 2500 0 2500 -2500 0 -2500 0 0
-2500z m1450 615 c0 -8 -13 -21 -29 -29 -34 -18 -91 -92 -91 -118 0 -10 -3
-18 -6 -18 -12 0 -33 35 -34 54 0 28 37 82 73 105 38 24 87 28 87 6z m271
-197 c13 -20 11 -28 -10 -28 -10 0 -24 -7 -31 -15 -9 -10 -31 -15 -72 -15 -51
0 -61 -3 -65 -20 -3 -11 -14 -20 -24 -20 -21 0 -34 -16 -19 -25 5 -3 10 -1 10
4 0 6 5 11 11 11 5 0 7 -5 3 -12 -5 -7 -3 -8 7 -2 8 4 60 9 117 9 84 0 102 -3
102 -15 0 -13 -2 -13 -9 -1 -7 11 -10 7 -13 -15 -3 -25 -7 -29 -33 -29 -22 0
-33 6 -40 23 -5 12 -17 22 -25 22 -8 0 -20 -10 -25 -22 -14 -31 -60 -36 -75
-8 -14 25 -30 17 -30 -16 0 -18 5 -24 21 -24 15 0 19 -5 14 -19 -9 -29 14 -38
103 -43 90 -5 107 -12 78 -34 -11 -8 -14 -14 -8 -14 21 0 13 -19 -10 -22 -14
-2 -24 -11 -26 -23 -3 -20 -3 -20 12 -1 25 31 27 14 6 -40 l-19 -50 32 -64
c18 -35 58 -91 90 -125 31 -35 57 -72 57 -83 0 -12 5 -24 11 -28 6 -3 8 -15 6
-26 -4 -12 -1 -18 6 -15 7 2 13 27 15 55 3 47 -1 57 -46 124 -27 40 -64 111
-82 158 -18 47 -35 91 -37 98 -3 6 -1 12 5 12 5 0 26 -44 47 -97 20 -54 57
-126 81 -161 42 -60 44 -67 44 -132 l0 -70 -47 0 c-47 1 -47 1 -27 18 30 25
14 69 -50 139 -29 32 -63 76 -74 98 -18 34 -21 36 -22 16 0 -13 20 -51 44 -85
36 -50 44 -71 46 -111 4 -88 6 -85 -52 -84 -51 0 -52 1 -31 15 35 25 20 68
-48 140 l-59 62 -53 -77 -54 -76 56 -3 c56 -3 91 -22 91 -49 0 -10 -28 -13
-129 -13 -143 0 -159 6 -142 53 10 25 9 26 -18 21 -40 -8 -87 19 -110 64 -10
20 -35 54 -55 75 -30 33 -36 45 -36 84 0 43 4 49 74 122 60 61 77 85 85 121
12 53 0 119 -24 136 -19 14 -61 5 -97 -20 -34 -24 -58 -21 -58 9 0 32 71 75
126 75 73 0 114 -54 114 -150 0 -94 -18 -134 -92 -206 -47 -46 -68 -74 -68
-90 0 -34 5 -30 30 21 12 25 41 61 65 81 46 37 130 74 168 73 12 0 -4 -10 -39
-23 -96 -36 -177 -105 -190 -164 -3 -15 -8 -33 -10 -40 -9 -29 19 -103 48
-127 38 -32 65 -32 100 2 15 14 30 24 33 21 3 -3 -4 -27 -15 -53 -12 -27 -19
-54 -16 -62 7 -18 240 -19 234 0 -3 8 -30 13 -76 15 -42 2 -72 7 -72 13 0 6
24 46 54 88 70 99 76 122 41 157 -24 24 -32 26 -85 22 -41 -3 -77 -14 -120
-37 -35 -18 -60 -26 -58 -19 8 22 115 71 168 76 64 6 108 -12 126 -52 13 -30
13 -29 14 32 0 40 4 61 10 57 6 -3 10 -40 10 -81 l0 -75 55 -64 c30 -36 55
-74 55 -85 0 -10 5 -22 10 -25 8 -5 7 -12 -2 -22 -10 -13 -9 -15 7 -12 16 3
21 14 23 51 3 43 -2 55 -47 122 l-51 75 0 106 0 105 -77 0 c-62 0 -85 5 -112
21 -30 18 -32 22 -19 30 14 8 15 15 7 39 -6 16 -17 34 -25 41 -18 15 -19 115
-1 122 9 4 9 8 -2 15 -24 17 -4 52 30 52 16 0 38 9 50 21 20 20 29 21 112 16
58 -4 93 -11 98 -19z m334 8 c32 -11 40 -19 40 -38 0 -21 3 -23 30 -19 27 4
29 2 16 -13 -7 -9 -10 -16 -6 -16 4 0 2 -7 -5 -15 -6 -8 -9 -19 -5 -25 8 -13
61 39 67 66 2 11 13 20 26 22 21 3 32 22 12 22 -18 0 -10 19 10 25 25 8 80
-15 80 -33 0 -7 -11 -18 -25 -24 -19 -8 -22 -14 -14 -24 14 -17 3 -34 -21 -34
-20 0 -38 -32 -21 -38 16 -5 13 -32 -3 -38 -8 -3 -13 -17 -12 -35 2 -28 -4
-33 -31 -30 -15 2 -17 -15 -3 -24 13 -8 6 -68 -8 -73 -16 -5 -92 18 -92 28 0
5 8 13 17 19 15 8 15 11 3 26 -11 14 -11 20 -1 37 15 24 7 35 -14 18 -8 -7
-23 -9 -32 -6 -11 5 -13 10 -7 14 15 10 25 42 14 42 -13 0 -51 61 -45 71 3 4
-2 12 -10 19 -18 15 -19 37 -2 43 6 3 -1 10 -18 17 -28 11 -28 13 -10 20 27
11 25 12 70 -4z m817 4 c45 -13 53 -23 37 -48 -8 -13 -9 -24 -2 -37 8 -13 7
-28 -3 -51 -12 -30 -12 -34 4 -44 12 -8 13 -13 5 -16 -15 -7 -17 -34 -3 -34 6
0 10 -9 10 -20 0 -11 -5 -20 -11 -20 -6 0 -9 -9 -6 -20 3 -13 -1 -21 -14 -25
-11 -4 -17 -10 -14 -15 9 -15 -25 -20 -123 -19 -135 2 -156 7 -160 42 -2 16 2
34 8 42 8 10 8 19 -2 34 -10 16 -10 23 0 33 18 18 16 95 -4 102 -25 10 -14 59
16 67 23 6 23 7 3 8 -30 1 -38 19 -11 24 47 9 234 7 270 -3z m563 0 c3 -5 16
-10 28 -10 21 -1 21 -1 3 -15 -10 -7 -15 -19 -11 -24 3 -6 -2 -14 -12 -18 -10
-4 -21 -10 -24 -15 -9 -13 -132 -13 -137 0 -2 7 -17 12 -32 12 -45 0 -80 20
-80 46 0 12 6 25 13 27 23 10 246 7 252 -3z m537 -3 c57 -15 65 -22 49 -41
-10 -12 -8 -17 8 -26 27 -14 27 -28 -1 -40 l-23 -9 22 -7 c26 -7 21 -24 -8
-24 -13 0 -19 -7 -19 -21 0 -11 -4 -29 -10 -39 -12 -23 -3 -50 17 -50 10 0 13
-6 9 -16 -4 -9 0 -27 9 -40 19 -29 6 -38 -41 -30 -27 6 -39 16 -57 48 -12 22
-28 51 -35 64 -15 27 -47 31 -76 9 -23 -17 -13 -35 20 -35 33 0 31 -18 -3 -22
-24 -2 -28 -8 -29 -33 0 -28 -3 -30 -33 -28 -19 1 -37 7 -41 14 -11 17 -9 101
1 115 6 7 3 16 -6 24 -21 17 -19 29 11 56 26 25 97 34 109 14 8 -13 75 -13 75
-1 0 5 7 16 15 25 13 13 11 15 -16 21 -18 4 -35 3 -42 -4 -13 -13 -61 -14 -85
-2 -9 6 -29 12 -44 16 -29 6 -39 25 -13 25 20 0 19 16 -2 24 -64 25 151 36
239 13z m-1804 -14 c-10 -2 -26 -2 -35 0 -10 3 -2 5 17 5 19 0 27 -2 18 -5z
m1197 -103 c3 -5 23 -10 44 -10 41 0 64 -18 66 -51 1 -15 -6 -22 -26 -26 -26
-5 -50 -33 -29 -33 17 0 50 -34 50 -52 0 -10 5 -18 11 -18 7 0 0 -9 -14 -20
-21 -17 -40 -20 -117 -20 -87 0 -93 1 -119 28 -24 24 -27 36 -29 99 -2 64 0
73 18 83 11 6 18 15 15 21 -4 5 20 9 59 9 36 0 68 -4 71 -10z m-1710 -60 c4
-6 -7 -10 -25 -10 -18 0 -29 4 -25 10 3 6 15 10 25 10 10 0 22 -4 25 -10z m-8
-76 c-3 -3 -12 -4 -19 -1 -8 3 -5 6 6 6 11 1 17 -2 13 -5z m2231 -51 c-10 -2
-26 -2 -35 0 -10 3 -2 5 17 5 19 0 27 -2 18 -5z m-1784 -229 c21 -8 22 -106 2
-123 -8 -7 -36 -11 -63 -9 l-48 3 -1 60 c-1 33 1 63 3 68 5 8 85 10 107 1z
m150 -37 c-2 -85 -4 -97 -19 -97 -12 0 -15 14 -15 63 0 35 3 67 7 71 15 15 28
-3 27 -37z m137 27 c13 -11 16 -25 12 -49 -5 -31 -3 -34 28 -42 54 -14 48 -33
-10 -33 -55 0 -54 -1 -64 80 -4 36 0 60 11 60 3 0 13 -7 23 -16z m222 -46 c-7
-33 7 -48 45 -48 13 0 22 -6 22 -15 0 -11 -12 -15 -45 -15 -52 0 -65 16 -65
83 0 53 7 62 31 41 13 -12 16 -25 12 -46z m208 50 c5 -72 -9 -143 -26 -127 -9
10 -12 95 -4 117 9 24 28 30 30 10z m139 -17 l5 -23 22 26 c37 42 61 26 28
-18 -12 -16 -12 -22 0 -47 8 -15 15 -33 15 -39 0 -18 -29 -11 -40 10 -6 11
-15 20 -19 20 -5 0 -11 -9 -14 -20 -3 -11 -12 -20 -21 -20 -13 0 -16 12 -16
63 0 35 3 67 7 71 12 11 27 1 33 -23z m293 22 c13 -12 -16 -33 -45 -33 -35 0
-71 17 -63 31 7 10 98 13 108 2z m159 -13 c12 -19 13 -19 34 1 33 31 45 16 42
-54 -3 -52 -6 -62 -23 -66 -13 -2 -29 8 -48 30 -27 33 -28 33 -22 8 8 -33 -12
-50 -30 -25 -13 17 -14 93 -1 114 11 18 34 14 48 -8z m282 14 c25 -10 19 -23
-16 -33 -19 -5 -25 -10 -14 -10 11 -1 27 -8 37 -17 14 -13 16 -21 7 -45 -10
-29 -13 -30 -61 -27 -53 3 -74 21 -35 31 l23 7 -23 15 c-17 13 -21 22 -16 43
4 15 9 30 11 35 5 8 65 9 87 1z m-437 -91 l1 -43 -44 0 c-39 0 -46 3 -55 26
-5 15 -7 35 -3 46 5 16 14 19 52 16 l47 -3 2 -42z m592 -119 c-15 -29 -86 -74
-117 -74 -61 0 -70 34 -13 50 25 6 53 26 82 58 l44 47 9 -28 c6 -19 5 -35 -5
-53z"/>
<path d="M1170 2814 c-55 -31 -54 -30 -45 -44 4 -7 16 -3 36 11 17 11 47 23
69 26 36 5 40 3 59 -28 26 -43 27 -119 2 -175 -10 -22 -42 -61 -70 -85 -86
-73 -100 -128 -45 -179 27 -26 34 -9 9 24 -27 36 -18 66 36 120 75 75 97 106
109 159 15 69 3 126 -36 165 -39 39 -64 40 -124 6z"/>
<path d="M2730 2851 c0 -6 16 -11 36 -11 24 0 34 -4 32 -12 -7 -20 -58 -21
-79 -2 -24 21 -29 17 -32 -31 -2 -41 19 -62 25 -23 3 19 11 24 57 31 64 9 69
12 55 35 -12 19 -94 30 -94 13z"/>
<path d="M2675 2720 c-6 -9 19 -20 47 -20 14 0 18 -5 14 -15 -4 -12 4 -15 39
-15 48 0 61 9 42 32 -13 17 -133 32 -142 18z"/>
<path d="M2021 2344 c0 -11 3 -14 6 -6 3 7 2 16 -1 19 -3 4 -6 -2 -5 -13z"/>
<path d="M2040 2300 c0 -5 7 -10 15 -10 8 0 15 5 15 10 0 6 -7 10 -15 10 -8 0
-15 -4 -15 -10z"/>
</g>
</svg>
