<?xml version="1.0" standalone="no"?>
<!DOCTYPE svg PUBLIC "-//W3C//DTD SVG 20010904//EN"
 "http://www.w3.org/TR/2001/REC-SVG-20010904/DTD/svg10.dtd">
<svg version="1.0" xmlns="http://www.w3.org/2000/svg"
 width="2100.000000pt" height="1500.000000pt" viewBox="0 0 2100.000000 1500.000000"
 preserveAspectRatio="xMidYMid meet">

<g transform="translate(0.000000,1500.000000) scale(0.100000,-0.100000)"
fill="#000000" stroke="none">
<path d="M17227 11330 c-3 -8 -8 -107 -11 -220 -6 -184 -13 -345 -32 -700 l-7
-115 -22 75 c-44 142 -77 226 -151 379 -158 328 -293 472 -513 548 -61 22 -95
27 -176 27 -112 1 -180 -13 -274 -56 -135 -60 -321 -289 -450 -553 -100 -204
-170 -439 -265 -890 -31 -145 -95 -512 -96 -547 0 -5 -9 -8 -20 -8 -20 0 -20
7 -20 480 l0 480 -80 0 c-47 0 -80 4 -80 10 0 6 -18 10 -40 10 -22 0 -40 -4
-40 -10 0 -6 -27 -10 -60 -10 l-60 0 0 -352 1 -353 -48 -6 c-83 -10 -93 -16
-93 -60 0 -39 0 -39 -40 -39 -38 0 -54 13 -27 23 9 4 8 8 -3 16 -13 10 -13 12
0 21 12 8 13 11 1 19 -11 7 -11 9 0 14 12 4 11 7 -1 16 -13 10 -13 12 0 21 12
8 13 11 1 19 -11 7 -11 9 0 14 12 4 11 7 -1 16 -13 10 -13 12 0 21 12 8 13 11
1 19 -11 7 -11 9 0 14 12 4 11 7 -1 16 -13 10 -13 12 0 21 12 8 13 11 1 19
-11 7 -11 9 0 14 12 4 11 7 -1 16 -13 10 -13 12 0 21 12 8 13 11 1 19 -11 7
-11 9 0 14 12 4 11 7 -1 16 -13 10 -13 12 0 21 12 8 13 11 1 19 -11 7 -11 9 0
14 12 4 11 7 -1 16 -13 10 -13 12 0 21 12 8 13 11 1 19 -11 7 -11 9 0 14 12 4
11 7 -1 16 -13 10 -13 12 0 21 12 8 13 11 1 19 -11 7 -11 9 0 14 12 4 11 7 -1
16 -13 10 -13 12 0 21 12 8 13 11 1 19 -11 7 -11 9 0 14 12 4 11 7 -1 16 -13
10 -13 12 0 22 11 8 12 12 3 16 -7 2 -13 16 -13 29 0 17 -6 24 -20 24 -18 0
-20 7 -20 60 0 52 -2 60 -19 60 -17 0 -19 9 -22 79 -4 68 -8 83 -29 106 -91
97 -288 93 -361 -8 -25 -35 -29 -49 -29 -109 0 -54 -3 -68 -15 -68 -12 0 -15
-13 -15 -60 0 -57 -1 -60 -25 -60 -20 0 -25 -5 -25 -24 0 -14 -5 -28 -11 -32
-8 -4 -7 -9 2 -15 12 -8 12 -10 0 -18 -9 -6 -10 -10 -2 -16 9 -5 9 -10 1 -20
-8 -10 -7 -14 2 -18 10 -4 10 -7 -1 -15 -9 -7 -10 -11 -2 -17 9 -5 9 -10 1
-20 -8 -10 -7 -14 2 -18 10 -4 10 -7 -1 -15 -9 -7 -10 -11 -2 -17 23 -14 -10
-35 -55 -35 -32 0 -44 -4 -44 -15 0 -12 -15 -15 -74 -15 -65 0 -74 -2 -79 -20
-3 -12 -14 -20 -26 -20 -20 0 -21 -5 -21 -130 l0 -130 -35 0 -35 0 0 -150 c0
-93 -4 -150 -10 -150 -6 0 -10 119 -10 338 0 187 -3 387 -7 445 -5 95 -4 107
10 107 12 0 17 9 17 29 0 26 -4 30 -32 33 -29 3 -33 7 -36 36 l-3 32 -125 0
-124 0 0 -35 c0 -33 -2 -35 -35 -35 -32 0 -35 -2 -35 -30 0 -20 5 -30 15 -30
13 0 15 -33 15 -240 l0 -240 -46 0 -46 0 3 -202 4 -203 -92 -3 c-86 -3 -92 -4
-95 -25 l-3 -22 -333 0 -332 0 0 -62 0 -63 2950 0 2950 0 2 -512 3 -513 118
-3 c100 -2 117 0 117 13 0 12 -16 15 -90 15 l-90 0 -2 500 -3 500 948 0 947 0
0 60 0 60 -270 0 -270 0 0 25 c0 24 -2 25 -75 25 l-75 0 0 170 c0 163 -1 170
-20 170 -15 0 -20 7 -20 25 0 23 -4 25 -40 25 -22 0 -40 -4 -40 -10 0 -5 -18
-10 -39 -10 -25 0 -41 -5 -45 -15 -3 -8 -15 -15 -26 -15 -15 0 -20 7 -20 25 0
23 -4 25 -40 25 -35 0 -40 3 -40 23 0 13 6 29 12 35 10 10 10 15 -2 23 -11 8
-12 12 -2 16 14 6 16 33 2 33 -5 0 -10 14 -10 30 0 17 5 30 10 30 14 0 12 27
-2 33 -10 4 -9 8 2 16 12 8 12 13 2 23 -16 16 -16 65 1 71 9 3 9 7 -2 20 -9
11 -10 17 -2 17 6 0 11 7 11 15 0 8 -4 15 -10 15 -15 0 -12 57 3 63 9 4 8 8
-3 17 -11 9 -12 13 -2 17 14 6 16 33 2 33 -5 0 -10 20 -10 45 0 38 -3 45 -20
45 -11 0 -20 5 -20 10 0 6 -7 10 -15 10 -9 0 -15 9 -15 23 0 21 -3 22 -70 19
-61 -3 -70 -6 -70 -23 0 -10 -7 -19 -15 -19 -8 0 -15 -4 -15 -10 0 -5 -9 -10
-20 -10 -17 0 -20 -7 -20 -45 0 -25 -4 -45 -10 -45 -5 0 -10 -7 -10 -15 0 -8
5 -15 11 -15 8 0 7 -5 -1 -15 -10 -12 -10 -19 -2 -27 15 -15 16 -58 2 -58 -5
0 -10 -7 -10 -15 0 -8 5 -15 11 -15 8 0 7 -5 -1 -15 -10 -12 -10 -19 -2 -27 7
-7 12 -21 12 -33 0 -12 -5 -26 -12 -33 -8 -8 -8 -15 2 -27 8 -10 9 -15 1 -15
-6 0 -11 -7 -11 -15 0 -8 5 -15 10 -15 6 0 10 -13 10 -30 0 -16 -4 -30 -10
-30 -14 0 -12 -27 3 -33 9 -4 8 -8 -3 -16 -12 -8 -12 -13 -2 -23 16 -16 16
-55 0 -61 -10 -3 -10 -7 1 -20 9 -11 10 -17 2 -17 -6 0 -11 -7 -11 -15 0 -8 5
-15 10 -15 6 0 10 -13 10 -30 0 -16 -4 -30 -10 -30 -5 0 -10 -7 -10 -15 0 -8
5 -15 11 -15 8 0 7 -5 -1 -15 -10 -12 -10 -19 -2 -27 7 -7 12 -47 12 -100 l0
-88 -60 0 -60 0 0 525 0 525 -35 0 -35 0 -3 178 -2 177 -3 -177 c-1 -111 -6
-178 -12 -178 -5 0 -10 17 -10 39 l0 39 -167 4 c-93 2 -176 2 -185 0 -13 -3
-18 -14 -18 -43 l0 -39 -50 0 -50 0 0 -525 0 -525 -103 0 -102 0 0 602 c0 422
-3 605 -11 613 -7 7 -11 75 -11 196 0 156 -3 194 -18 237 l-19 52 -98 0 c-88
0 -98 2 -98 18 0 10 -13 31 -29 46 l-30 29 -30 -24 c-16 -13 -31 -33 -33 -44
-3 -18 -12 -20 -96 -23 l-93 -3 -21 -47 c-19 -43 -21 -65 -20 -236 0 -132 -3
-193 -11 -201 -9 -8 -12 -83 -11 -263 1 -239 0 -252 -18 -252 -16 0 -18 -9
-18 -69 0 -66 -11 -94 -30 -75 -5 5 -13 142 -19 304 -7 162 -16 385 -21 495
-6 110 -13 308 -16 440 -7 225 -14 302 -27 265z m-770 -71 c181 -67 324 -232
441 -509 22 -52 51 -129 65 -170 35 -103 110 -401 136 -540 12 -63 26 -134 32
-158 12 -54 3 -92 -22 -92 -18 0 -19 -12 -19 -260 l0 -260 -35 0 -35 0 0 195
0 195 -33 0 -32 0 0 315 c0 218 -3 318 -11 323 -7 4 -10 38 -9 87 2 84 -5 105
-36 105 -17 0 -19 8 -19 75 l0 75 -110 0 -110 0 0 -75 c0 -67 -2 -75 -19 -75
-25 0 -28 -11 -27 -105 1 -58 -3 -85 -14 -98 -17 -20 -23 -77 -7 -77 7 0 7 -4
-1 -12 -8 -8 -9 -15 -1 -25 7 -7 7 -13 2 -13 -5 0 -10 -13 -10 -30 0 -16 5
-30 10 -30 5 0 4 -7 -4 -16 -10 -13 -10 -17 0 -24 10 -5 10 -9 2 -15 -9 -5 -9
-10 0 -21 6 -8 7 -14 2 -14 -5 0 -10 -13 -10 -30 0 -16 5 -30 10 -30 5 0 4 -6
-2 -14 -9 -11 -9 -16 0 -21 8 -6 8 -10 -2 -15 -10 -7 -10 -11 0 -24 8 -9 9
-16 4 -16 -5 0 -10 -13 -10 -30 0 -16 5 -30 10 -30 5 0 4 -6 -2 -14 -9 -11 -9
-16 0 -21 8 -6 8 -10 -2 -15 -10 -7 -10 -12 0 -23 9 -12 9 -16 -1 -20 -10 -4
-11 -7 0 -18 20 -22 14 -29 -25 -29 -38 0 -38 0 -38 -42 0 -24 -4 -43 -10 -43
-5 0 -9 5 -9 12 1 6 -11 17 -27 24 l-29 11 0 132 c0 116 -3 137 -24 181 -12
28 -30 56 -39 64 -10 7 -17 24 -17 37 0 17 -6 24 -20 24 -18 0 -20 7 -20 59 0
40 -5 65 -15 75 -12 11 -15 40 -15 128 1 110 1 112 17 83 22 -40 30 -14 9 30
-31 64 -36 51 -36 -93 0 -112 -3 -142 -15 -152 -10 -8 -15 -31 -15 -71 0 -46
-3 -59 -15 -59 -9 0 -15 -9 -15 -24 0 -13 -7 -26 -15 -29 -8 -4 -27 -25 -42
-49 -27 -41 -28 -49 -31 -190 l-4 -147 -28 -9 c-18 -7 -28 -17 -27 -29 1 -12
-6 -19 -20 -21 -18 -3 -23 2 -24 20 l0 23 -9 -22 c-8 -19 -17 -23 -50 -23 -33
0 -40 3 -40 20 0 11 -4 20 -10 20 -5 0 -10 -10 -10 -22 0 -22 0 -22 -14 -3 -7
11 -16 61 -19 115 -3 52 -11 96 -17 98 -5 2 -10 32 -10 68 0 50 -3 64 -15 64
-10 0 -15 10 -15 31 0 22 -13 45 -47 85 l-47 54 -53 -52 c-43 -42 -53 -59 -53
-85 0 -26 -4 -33 -19 -33 -16 0 -19 -11 -23 -84 -3 -46 -9 -89 -12 -95 -4 -6
-8 -113 -9 -238 l-2 -228 -92 -3 c-51 -1 -93 -1 -93 1 0 31 82 501 120 687 97
478 137 619 241 837 42 89 116 217 151 263 151 197 365 273 565 199z m780
-516 c-2 -21 -4 -6 -4 32 0 39 2 55 4 38 2 -18 2 -50 0 -70z m3 -116 c0 -59
-3 -74 -15 -74 -12 0 -15 14 -13 71 l1 71 7 -60 7 -60 1 63 c3 87 12 78 12
-11z m0 -98 c0 -5 5 -7 12 -3 8 5 9 -4 5 -34 -4 -22 -3 -52 3 -66 9 -25 8 -26
-25 -26 l-35 0 0 48 c0 61 9 92 26 92 8 0 14 -5 14 -11z m10 -219 c0 -56 -3
-70 -15 -70 -11 0 -16 12 -17 43 l-1 42 -4 -42 c-2 -24 -9 -43 -15 -43 -6 0
-8 12 -4 31 3 17 6 49 6 70 0 35 3 39 25 39 24 0 25 -2 25 -70z m17 -37 c-2
-21 -4 -4 -4 37 0 41 2 58 4 38 2 -21 2 -55 0 -75z m-60 -75 c-3 -8 -6 -5 -6
6 -1 11 2 17 5 13 3 -3 4 -12 1 -19z m44 -15 l2 -38 7 40 c6 35 7 31 9 -30 1
-63 -1 -71 -18 -72 -22 -2 -31 22 -31 90 0 35 4 47 15 47 10 0 15 -11 16 -37z
m27 -199 c3 -88 -1 -93 -17 -19 -5 28 -13 62 -17 77 -5 22 -3 26 12 24 16 -2
19 -14 22 -82z"/>
<path d="M2775 10610 c-33 -4 -106 -13 -163 -20 -180 -20 -563 -125 -717 -195
-60 -28 -190 -77 -207 -78 -10 -1 -14 -5 -9 -10 4 -4 57 11 117 34 238 91 293
111 409 144 321 92 454 110 810 110 223 0 302 -4 390 -19 211 -35 450 -98 620
-165 55 -21 142 -55 193 -75 l92 -36 51 26 c28 14 61 36 73 48 11 13 35 31 51
40 29 17 25 16 -40 -6 -36 -13 -56 -28 -50 -38 7 -12 -75 -52 -98 -47 -12 3
-71 25 -132 49 -212 86 -357 135 -495 167 -47 11 -103 24 -125 30 -137 34
-625 60 -770 41z"/>
<path d="M2808 10569 c-338 -26 -686 -123 -1031 -286 l-98 -47 -45 22 c-58 28
-68 28 -48 -3 13 -21 14 -25 2 -25 -8 0 -25 19 -38 43 -13 23 -52 69 -87 101
-35 32 -63 62 -63 66 0 4 26 -3 58 -16 31 -13 64 -24 73 -24 9 0 23 -7 30 -16
14 -17 84 -64 95 -64 3 0 -12 17 -33 37 -37 36 -103 67 -248 114 -33 10 -69
24 -80 29 -41 20 -166 57 -170 50 -3 -4 9 -10 25 -14 68 -13 180 -75 231 -127
53 -54 59 -74 12 -42 -42 29 -262 133 -283 133 -17 0 22 -155 115 -466 28 -91
33 -121 28 -168 -3 -31 -10 -56 -14 -56 -15 0 -22 51 -10 76 9 21 8 24 -10 24
-11 0 -17 -4 -14 -10 3 -5 0 -22 -8 -37 -8 -15 -17 -44 -20 -63 -6 -31 -5 -33
7 -17 27 34 27 -24 0 -108 -55 -177 -215 -618 -229 -633 -4 -4 -138 49 -149
59 -34 31 -36 14 -36 -312 0 -345 10 -506 41 -664 22 -110 120 -412 149 -460
10 -16 66 -127 125 -245 110 -220 197 -372 270 -470 83 -113 83 -104 -3 28
-29 46 -51 86 -49 89 5 4 70 -78 121 -155 16 -23 30 -41 32 -39 7 6 -51 106
-117 204 -36 54 -72 109 -79 123 -18 32 -18 148 -1 179 13 23 14 22 51 -53 40
-81 132 -214 213 -308 l50 -57 -12 -45 c-6 -25 -11 -54 -11 -65 0 -21 200
-211 222 -211 7 0 26 23 42 51 l28 51 67 -64 c123 -119 197 -168 481 -318 96
-51 206 -113 245 -139 85 -57 231 -196 305 -290 30 -39 60 -69 66 -68 6 1 48
46 94 100 131 156 239 239 490 375 236 128 407 245 544 371 l50 45 23 -49 c12
-28 23 -56 23 -62 0 -7 6 -13 14 -13 16 0 235 185 242 205 3 8 -2 37 -11 66
l-17 51 69 72 c104 106 233 268 233 292 0 4 -7 12 -71 86 l-41 48 -30 -18
c-51 -30 -306 -310 -337 -370 -21 -41 -194 -214 -296 -296 -131 -106 -184
-140 -478 -306 -215 -123 -341 -231 -462 -398 -16 -23 -33 -42 -37 -42 -4 0
-28 28 -54 63 -156 204 -265 290 -569 447 -216 112 -293 166 -429 304 -194
195 -291 303 -289 318 2 7 -51 70 -117 138 -66 69 -120 126 -120 128 0 1 7 2
15 2 7 0 18 7 23 16 11 20 17 17 116 -71 40 -36 78 -80 93 -110 41 -79 118
-188 172 -244 60 -62 90 -69 33 -7 -32 34 -112 172 -112 192 0 2 8 4 18 4 10
0 33 -25 57 -63 94 -147 360 -369 605 -507 136 -76 276 -170 339 -227 66 -59
67 -88 1 -42 -32 24 -14 1 65 -82 61 -63 113 -115 118 -117 24 -11 -19 190
-57 266 -32 62 -122 187 -211 292 -98 115 -289 299 -348 335 -42 26 -54 42
-89 113 -22 46 -38 85 -36 87 8 8 194 -160 353 -320 148 -148 323 -351 390
-453 15 -23 31 -41 35 -40 4 2 42 48 85 103 135 173 238 287 412 453 155 148
283 259 283 247 0 -3 -10 -27 -22 -53 -24 -51 -57 -86 -250 -265 -177 -164
-348 -371 -418 -505 -30 -56 -59 -169 -60 -226 0 -27 7 -21 114 82 107 104
146 135 233 188 57 35 62 48 4 15 -29 -18 -88 -59 -132 -91 -43 -33 -80 -60
-83 -60 -21 0 3 35 52 77 107 91 232 173 362 238 43 22 278 183 340 234 139
113 250 237 310 348 37 67 50 77 26 19 -8 -20 -11 -34 -6 -31 15 10 12 -4 -9
-33 -10 -15 -30 -50 -44 -77 -14 -28 -46 -74 -71 -102 -25 -28 -46 -54 -46
-58 0 -9 79 54 107 85 37 42 193 281 193 296 0 6 -90 -5 -180 -22 -76 -15
-323 -100 -393 -136 -49 -25 -61 -14 -22 18 75 62 336 164 498 196 99 19 111
24 147 59 22 22 40 43 40 49 0 5 -19 14 -42 20 -24 6 -54 16 -68 22 -23 11
-18 13 45 19 74 6 185 53 203 85 9 16 37 12 94 -11 16 -6 17 -2 12 41 l-5 49
26 -40 c14 -22 28 -51 31 -65 13 -58 26 -90 34 -85 10 6 52 133 65 193 6 28 1
40 -42 97 l-49 66 12 87 c15 106 55 245 95 331 16 35 28 66 26 68 -8 7 -56
-73 -85 -142 -30 -68 -62 -208 -62 -266 0 -16 -4 -29 -8 -29 -15 0 -55 98 -49
120 3 12 -5 91 -19 177 -13 85 -24 158 -24 162 0 3 26 26 58 49 77 56 113 95
152 164 l31 57 -43 22 c-72 36 -124 79 -171 138 -25 31 -65 81 -89 111 -60 75
-137 189 -189 283 -24 43 -53 93 -63 111 l-20 33 47 67 c43 62 146 232 171
283 6 13 14 23 17 23 10 0 126 -251 164 -355 34 -93 86 -256 152 -470 33 -107
56 -135 111 -135 35 0 40 -3 40 -24 0 -23 -1 -24 -35 -9 -57 24 -59 9 -4 -30
53 -39 54 -40 34 -94 -3 -7 0 -13 7 -13 7 0 10 -7 6 -16 -3 -9 -9 -73 -12
-143 -9 -208 -68 -544 -100 -568 -21 -15 -8 -39 51 -91 l45 -39 -39 -7 c-21
-3 -48 -14 -59 -23 -11 -10 -38 -71 -61 -142 -48 -142 -65 -179 -75 -162 -18
28 -23 4 -18 -78 6 -108 -5 -136 -103 -258 -36 -45 -65 -85 -65 -89 0 -5 25
16 56 46 64 62 63 57 -13 -53 -91 -130 -54 -114 52 23 101 130 151 220 329
591 92 191 163 443 192 677 19 156 32 822 17 822 -6 0 -50 -16 -98 -35 -49
-20 -92 -32 -96 -28 -10 10 -150 438 -184 563 -15 52 -33 119 -41 148 -8 29
-19 50 -23 48 -8 -6 -61 101 -61 123 0 6 6 22 14 34 34 51 181 557 163 557 -3
0 -55 -20 -116 -45 -125 -50 -179 -84 -264 -164 -57 -54 -75 -60 -62 -22 9 28
173 175 227 202 58 30 206 79 236 79 24 0 25 -1 19 -62 -3 -35 -25 -126 -47
-203 -61 -206 -100 -344 -100 -355 0 -6 3 -10 8 -10 4 0 17 42 30 93 12 50 38
144 57 207 64 208 80 315 51 339 -11 9 -40 4 -133 -24 -65 -20 -138 -41 -163
-47 -31 -8 -40 -13 -27 -17 14 -5 7 -14 -35 -48 -29 -22 -85 -70 -124 -105
-106 -97 -111 -97 -224 -45 -375 175 -721 269 -1090 297 -150 11 -196 11 -352
-1z m548 -154 c247 -31 559 -125 841 -254 123 -56 156 -61 244 -35 46 13 67
29 137 100 100 101 135 126 165 122 31 -4 22 -21 -20 -36 -22 -7 -64 -41 -107
-85 -101 -104 -131 -119 -336 -162 -96 -21 -236 -57 -310 -82 -74 -24 -170
-53 -214 -64 -75 -19 -80 -19 -130 -3 -109 36 -228 98 -431 224 -33 21 -88 55
-123 75 l-63 39 -32 -19 c-18 -10 -72 -44 -122 -75 -272 -172 -442 -255 -515
-252 -42 1 -326 70 -387 93 -14 5 -107 27 -206 49 -99 22 -199 49 -224 61 -24
12 -63 44 -86 72 -75 89 -119 137 -128 137 -22 0 -1 -109 36 -195 12 -27 35
-81 50 -120 16 -38 47 -104 68 -145 22 -41 57 -110 79 -152 38 -77 179 -322
233 -408 15 -24 51 -68 78 -97 l50 -53 -76 -166 c-60 -129 -74 -169 -66 -182
8 -13 -6 -48 -66 -162 -120 -226 -202 -359 -369 -593 -75 -107 -92 -126 -102
-113 -16 23 -27 20 -21 -5 5 -19 0 -35 -25 -79 -44 -79 -44 -73 -14 -176 15
-53 24 -99 22 -102 -3 -3 -8 4 -12 14 -40 116 -108 169 -175 134 -10 -6 -19
-7 -19 -3 0 9 67 57 93 66 10 4 17 10 15 15 -73 142 -116 287 -116 392 l1 55
23 -90 c12 -49 23 -103 24 -120 0 -22 3 -26 9 -15 6 9 4 46 -5 93 -18 104 -37
312 -32 362 l3 40 47 3 c45 3 50 1 93 -45 25 -26 58 -68 72 -93 26 -42 28 -54
31 -187 2 -79 8 -143 12 -143 30 0 232 288 342 485 125 225 137 250 127 268
-8 13 -1 34 26 85 20 37 54 109 76 161 l40 93 -48 52 c-27 28 -59 65 -72 81
-22 28 -24 29 -35 11 -116 -191 -246 -357 -321 -408 -29 -20 -28 -20 6 18 20
21 50 55 68 74 39 43 168 235 211 315 19 36 29 66 26 79 -3 12 -45 83 -93 158
-48 76 -103 162 -122 193 -18 30 -37 55 -42 55 -12 0 -113 -184 -154 -281 -46
-109 -93 -232 -149 -394 -55 -160 -79 -222 -92 -234 -11 -11 -64 -2 -64 10 0
5 11 7 24 3 13 -3 27 -1 31 5 3 6 44 122 90 259 118 350 190 544 239 644 l43
87 -32 73 c-49 112 -71 184 -90 296 -15 83 -16 105 -6 112 26 15 53 -4 122
-87 80 -95 98 -109 177 -135 105 -35 130 -34 200 6 213 120 585 242 843 276
236 31 509 33 735 5z m1359 -44 c3 -6 -14 -18 -38 -29 -27 -12 -68 -47 -112
-96 -41 -45 -76 -76 -88 -76 -27 0 -97 41 -97 57 0 19 15 16 60 -9 l39 -23 53
51 c60 58 155 134 168 134 5 0 11 -4 15 -9z m-3293 -61 c43 -45 61 -80 40 -80
-8 0 -112 115 -112 124 0 18 30 0 72 -44z m3335 -24 c-3 -7 -14 -42 -25 -77
-18 -55 -47 -131 -120 -302 -12 -31 -13 -42 -4 -55 35 -47 92 -192 163 -412
114 -351 190 -574 200 -584 5 -6 19 -5 35 3 30 13 42 8 25 -12 -19 -24 -69
-19 -87 8 -8 13 -51 131 -94 262 -43 131 -97 285 -120 343 -50 125 -151 321
-164 317 -5 -2 -33 -43 -62 -93 -47 -78 -164 -267 -197 -316 -9 -14 -9 -23 2
-40 8 -13 23 -40 33 -61 30 -60 144 -223 240 -342 l89 -110 -86 90 c-95 99
-170 195 -248 318 l-51 80 -15 -24 c-9 -13 -37 -47 -63 -76 -27 -29 -48 -59
-48 -67 0 -7 11 -39 25 -70 14 -31 25 -63 25 -71 0 -18 -16 -20 -27 -2 -13 20
-63 140 -63 151 0 6 20 31 44 56 45 46 231 344 324 522 70 132 130 268 187
423 27 72 53 136 58 143 13 16 30 15 24 -2z m-3238 -226 c40 -20 139 -45 339
-85 40 -8 85 -21 100 -28 15 -8 65 -26 112 -40 330 -100 414 -96 746 39 178
72 175 71 138 43 -18 -13 -77 -46 -132 -74 -55 -27 -101 -53 -101 -56 -1 -3
20 -4 47 -1 26 2 65 4 87 3 22 0 64 7 92 15 52 14 53 14 110 -17 62 -35 133
-96 133 -115 0 -14 28 -27 41 -19 4 3 11 -6 15 -20 5 -19 9 -23 19 -15 7 6 19
8 27 5 8 -3 39 3 68 15 29 11 55 19 57 16 2 -2 -18 -37 -45 -77 -27 -41 -64
-100 -82 -131 -43 -77 -52 -81 -44 -19 5 37 3 51 -6 51 -7 0 -10 -6 -7 -14 4
-10 0 -12 -16 -8 -18 4 -20 3 -10 -9 9 -11 6 -14 -15 -16 -14 0 -31 -8 -38
-17 -6 -9 -16 -16 -23 -16 -6 0 -11 -4 -11 -10 0 -5 5 -10 10 -10 6 0 10 -4
10 -10 0 -5 -6 -7 -14 -4 -8 3 -17 1 -21 -5 -3 -6 1 -11 10 -11 9 0 13 -5 10
-10 -4 -6 -10 -8 -15 -5 -4 3 -15 2 -23 -1 -13 -4 -9 -14 19 -51 35 -46 60
-96 71 -142 4 -21 -7 -14 -64 42 -70 68 -87 80 -76 50 5 -12 2 -15 -10 -10
-13 5 -17 1 -17 -17 0 -32 -9 -35 -94 -27 -5 1 -3 9 5 19 7 9 -11 -5 -39 -33
-37 -35 -55 -46 -60 -38 -5 7 -42 52 -83 100 -74 86 -93 109 -224 264 -110
130 -175 196 -175 178 0 -24 110 -179 219 -308 53 -62 110 -130 126 -151 17
-20 73 -91 126 -156 132 -164 176 -224 189 -258 l11 -29 19 39 c11 21 71 103
133 181 262 330 295 370 347 428 31 33 84 107 119 165 69 112 87 137 75 105
-10 -29 -51 -100 -100 -175 -59 -92 -95 -166 -149 -315 -26 -71 -52 -136 -58
-142 -13 -18 -8 -17 73 13 39 15 73 24 76 22 2 -3 0 -17 -6 -32 -8 -21 -7 -31
5 -42 13 -13 14 -12 9 14 -5 24 -2 31 14 36 13 4 24 23 32 54 7 26 16 52 20
57 4 6 10 21 13 36 4 14 20 45 36 69 16 24 27 48 25 55 -3 6 5 21 17 33 11 13
55 74 96 135 42 62 90 132 108 157 47 67 105 175 105 198 0 11 8 23 17 26 23
9 367 86 384 86 24 0 132 55 168 85 l34 29 -8 -25 c-23 -77 -173 -393 -260
-548 -60 -106 -195 -318 -214 -335 -21 -19 -22 -19 -46 4 -14 13 -25 27 -25
31 0 5 28 48 62 96 101 145 286 459 275 469 -2 2 -28 -14 -58 -37 -30 -22
-126 -92 -215 -155 -89 -63 -168 -122 -178 -132 -9 -10 -23 -55 -32 -100 -9
-45 -23 -90 -31 -100 -13 -15 -14 -11 -10 38 l4 54 -21 -25 c-11 -14 -43 -43
-71 -64 -86 -67 -185 -157 -185 -167 0 -5 5 -6 12 -2 7 4 8 3 4 -5 -4 -6 -11
-9 -16 -6 -5 3 -11 1 -14 -4 -4 -5 -2 -12 4 -16 16 -10 12 -25 -6 -25 -10 0
-14 6 -11 14 4 10 1 13 -9 9 -9 -3 -11 -10 -6 -17 5 -6 12 -21 15 -34 4 -18 2
-22 -9 -18 -8 3 -13 2 -10 -2 6 -9 -29 -42 -44 -42 -6 0 -10 -4 -10 -10 0 -5
-7 -10 -15 -10 -8 0 -15 -7 -15 -15 0 -12 3 -13 13 -5 21 18 323 208 373 235
43 23 94 33 94 19 0 -3 -28 -40 -63 -83 -35 -42 -79 -98 -97 -124 -47 -66
-269 -241 -405 -318 -27 -15 -84 -55 -125 -89 l-75 -60 -27 32 c-25 29 -28 40
-28 108 0 41 7 104 14 140 8 36 13 66 11 68 -10 11 -69 -140 -83 -212 -9 -47
-19 -86 -22 -86 -11 0 -29 47 -36 90 -8 50 -20 51 -29 3 -4 -21 -14 -51 -22
-68 -15 -28 -17 -28 -24 -10 -4 11 -8 32 -8 46 -1 37 -47 166 -72 203 -11 17
-18 22 -14 11 4 -11 9 -68 12 -126 5 -101 5 -107 -21 -147 -14 -23 -29 -42
-32 -42 -3 0 -28 19 -54 43 -26 23 -103 80 -171 127 -331 224 -328 221 -430
385 -28 44 -55 88 -62 97 -19 28 1 33 47 11 24 -12 46 -19 49 -17 6 7 -46 160
-58 171 -4 5 -5 -7 -3 -25 3 -18 1 -35 -3 -38 -14 -8 -33 38 -54 136 l-22 95
-165 110 c-91 61 -187 126 -214 146 -75 55 -78 55 -48 3 101 -175 250 -411
309 -488 l28 -37 -23 -24 c-13 -14 -29 -25 -35 -25 -20 0 -88 90 -158 209 -37
62 -67 115 -67 118 0 2 -24 45 -54 96 -84 145 -205 394 -231 476 -7 23 -4 22
36 -11 24 -20 64 -46 88 -58z m-19 -427 c30 -53 81 -137 113 -186 53 -84 56
-92 42 -111 -8 -12 -33 -52 -56 -91 -109 -184 -283 -419 -365 -496 -22 -20
-56 -46 -76 -58 -21 -13 -38 -25 -38 -27 0 -18 41 -76 99 -142 105 -120 102
-112 90 -222 -26 -223 -53 -283 -43 -93 8 147 2 162 -102 263 -69 68 -76 72
-112 68 -20 -3 -44 -7 -52 -9 -26 -7 -23 37 4 65 33 32 33 41 -4 56 -39 16
-38 28 7 68 l38 32 -38 -6 c-38 -6 -39 -6 -35 22 2 24 9 30 38 34 66 11 70 17
144 243 86 259 150 423 217 560 34 70 65 127 68 127 3 0 31 -44 61 -97z m1620
-255 c0 -13 -23 -5 -28 10 -2 7 2 10 12 6 9 -3 16 -11 16 -16z m726 -57 c0
-11 -3 -18 -7 -15 -4 2 -9 -15 -13 -37 -6 -39 -8 -41 -25 -25 -20 18 -36 22
-26 6 3 -5 -1 -10 -9 -10 -9 0 -16 -5 -16 -11 0 -19 -31 -36 -57 -31 l-23 4
25 24 c32 30 38 30 30 3 -5 -15 -4 -19 4 -15 6 4 11 13 11 19 0 18 60 87 84
97 12 5 21 9 21 9 1 1 1 -8 1 -18z m-168 -136 c9 1 11 0 4 -2 -8 -3 -11 -11
-8 -19 3 -7 0 -16 -6 -20 -6 -4 -8 -3 -4 4 3 6 -1 15 -10 20 -11 6 -14 14 -9
23 6 8 10 9 12 2 2 -6 12 -10 21 -8z m-228 -24 c-14 -27 -32 -37 -23 -14 6 15
22 32 31 33 1 0 -2 -9 -8 -19z m245 -31 c-3 -5 -11 -10 -16 -10 -6 0 -7 5 -4
10 3 6 11 10 16 10 6 0 7 -4 4 -10z m-1711 -190 c43 16 49 12 27 -16 l-21 -27
79 -86 c44 -47 131 -137 194 -199 110 -109 115 -113 173 -123 137 -24 207 -39
213 -45 3 -3 -16 -25 -44 -49 -35 -31 -63 -46 -100 -53 -27 -6 -59 -14 -70
-18 -17 -7 -18 -6 -7 8 12 15 5 17 -65 23 -87 8 -108 18 -93 45 7 13 4 22 -12
36 -24 22 -50 61 -103 159 -36 67 -142 206 -168 222 -7 4 -5 -2 3 -12 14 -17
13 -18 -3 -12 -15 6 -16 4 -6 -16 10 -19 8 -19 -18 6 -16 15 -35 27 -42 27
-22 0 -41 26 -29 38 8 8 9 21 1 47 -7 20 -7 37 -2 41 5 3 9 15 9 26 0 21 1 21
28 -5 25 -24 32 -26 56 -17z m2286 -47 l31 -58 -25 -53 c-14 -29 -26 -59 -26
-66 0 -30 126 -259 270 -491 101 -162 190 -327 190 -351 0 -23 -21 5 -110 151
-202 332 -361 608 -374 651 -4 13 3 44 20 81 l26 61 -31 60 c-36 70 -36 72
-17 72 8 0 29 -26 46 -57z m-170 28 c-1 -7 -60 -88 -161 -218 -41 -54 -98
-132 -126 -173 -28 -42 -58 -81 -66 -89 -11 -8 -14 -22 -11 -41 l6 -28 -85
-12 c-66 -9 -84 -15 -80 -26 4 -12 -2 -11 -37 1 -23 8 -49 15 -57 15 -21 0
-125 82 -116 91 13 12 127 39 169 40 62 1 99 20 177 88 125 111 337 331 337
350 0 14 6 17 25 13 14 -2 25 -7 25 -11z m987 -323 c-4 -218 -11 -349 -21
-402 -18 -98 -58 -248 -63 -242 -3 2 7 60 21 128 33 163 44 283 52 586 4 138
9 252 12 252 3 0 2 -145 -1 -322z m-2898 225 c18 -21 26 -40 20 -42 -11 -3
-79 57 -79 71 0 20 31 5 59 -29z m1626 -18 c-15 -26 -29 -45 -31 -42 -7 7 15
60 33 80 28 30 27 10 -2 -38z m-1567 -20 l1 -20 -9 20 c-5 11 -8 31 -8 45 l0
25 8 -25 c4 -14 8 -34 8 -45z m-351 3 c37 -39 111 -135 236 -307 54 -75 81
-121 74 -128 -7 -6 -60 22 -127 67 -30 20 -74 47 -96 58 -35 18 -45 30 -64 79
-12 32 -40 100 -61 151 -22 51 -39 99 -39 107 0 28 36 15 77 -27z m2305 11
c-4 -17 -63 -159 -102 -246 -19 -42 -35 -63 -52 -68 -12 -4 -67 -32 -121 -62
-54 -30 -102 -53 -108 -51 -5 2 36 58 93 125 57 67 123 150 148 185 65 92 111
139 129 135 9 -2 15 -10 13 -18z m-2259 -19 c3 -11 3 -20 1 -20 -2 0 -8 9 -14
20 -6 11 -7 20 -2 20 6 0 12 -9 15 -20z m578 -67 c27 -16 49 -33 49 -40 0 -16
-59 -32 -85 -23 -24 9 -47 52 -39 74 8 22 18 20 75 -11z m1049 -7 c0 -52 -59
-81 -100 -48 l-24 19 54 31 c58 33 70 33 70 -2z m-1175 -81 c19 -25 46 -45 72
-55 56 -21 63 -30 24 -30 -56 0 -99 28 -132 84 -32 57 -42 111 -11 66 9 -13
31 -43 47 -65z m1265 10 c-28 -57 -81 -95 -133 -95 -44 0 -42 15 3 25 39 9 85
47 118 99 32 52 41 31 12 -29z m-472 -186 c81 -22 166 -49 189 -60 77 -37 132
-126 133 -213 0 -39 -3 -47 -15 -42 -13 4 -13 2 -5 -14 44 -82 -59 -238 -181
-274 -60 -18 -159 -21 -159 -5 0 20 48 80 93 115 59 46 80 90 72 148 -14 88
-86 113 -235 83 -53 -11 -88 -13 -120 -7 -67 13 -79 11 -40 -7 27 -13 68 -17
177 -17 107 -1 145 -4 155 -15 11 -11 8 -13 -17 -8 -16 3 -108 2 -204 -3 -97
-4 -187 -4 -205 1 -19 5 -45 5 -64 0 -41 -12 -44 8 -4 38 19 15 21 19 7 15
-45 -15 -65 -45 -65 -98 0 -58 14 -78 93 -141 45 -36 77 -79 77 -105 0 -16
-96 -12 -161 6 -109 31 -194 132 -187 223 1 27 0 47 -4 44 -15 -9 -8 66 12
130 23 73 56 119 104 144 41 21 332 101 374 102 17 1 98 -17 180 -40z m-1242
-144 c8 -19 12 -35 10 -35 -6 0 -46 84 -46 96 1 12 17 -16 36 -61z m-1006 -7
c0 -19 -2 -20 -10 -8 -13 19 -13 30 0 30 6 0 10 -10 10 -22z m1266 -79 c71
-38 138 -79 150 -90 28 -26 35 -24 24 7 -17 44 -12 69 19 92 17 12 33 18 36
12 3 -5 12 -47 19 -92 10 -60 24 -103 52 -153 58 -108 70 -122 137 -154 51
-25 83 -32 177 -41 63 -5 118 -10 123 -10 4 0 7 -4 7 -10 0 -23 -227 -5 -328
25 -48 14 -55 21 -72 59 -21 51 -44 72 -34 32 10 -43 -8 -29 -55 39 -52 78
-97 115 -188 156 -37 16 -79 36 -93 42 -32 16 -129 157 -107 157 2 0 61 -32
133 -71z m1705 -7 c-41 -57 -59 -72 -98 -87 -128 -48 -206 -106 -265 -197 -33
-50 -48 -60 -48 -30 -1 10 -9 2 -21 -20 -24 -47 -48 -62 -126 -82 -79 -21
-283 -34 -283 -18 0 6 30 13 68 16 180 15 282 50 325 110 45 63 94 175 107
240 13 70 28 88 56 65 16 -13 15 -59 -1 -104 -6 -14 5 -8 31 18 35 32 293 171
302 162 2 -2 -19 -34 -47 -73z m-2964 6 c-3 -7 -5 -2 -5 12 0 14 2 19 5 13 2
-7 2 -19 0 -25z m10 -50 c-3 -8 -6 -5 -6 6 -1 11 2 17 5 13 3 -3 4 -12 1 -19z
m2189 -89 c4 -8 3 -9 -5 -5 -7 4 -75 5 -152 1 -141 -8 -161 -15 -124 -45 31
-26 16 -39 -22 -19 -21 10 -44 19 -53 19 -29 0 -43 16 -32 36 9 18 26 19 195
22 136 2 187 0 193 -9z m129 -28 c-6 -5 -36 -18 -67 -29 -53 -18 -57 -19 -48
-2 8 15 48 39 90 53 19 6 37 -10 25 -22z m-1264 -99 c30 -15 75 -36 101 -46
77 -29 188 -162 188 -225 0 -12 -3 -21 -6 -21 -3 0 -67 58 -143 129 -75 70
-156 142 -180 160 -54 39 -31 41 40 3z m359 -66 c0 -11 -25 17 -61 69 -13 19
-6 14 20 -14 23 -24 41 -49 41 -55z m-1027 27 c4 -20 2 -33 -4 -33 -6 0 -7 5
-4 10 3 6 1 10 -4 10 -14 0 -14 -23 0 -37 9 -9 9 -23 -1 -58 -7 -25 -17 -48
-21 -51 -5 -3 -9 -15 -9 -26 0 -12 -3 -18 -7 -15 -3 4 -15 -1 -26 -10 -19 -18
-20 -17 -15 33 4 41 75 222 83 212 1 -2 5 -18 8 -35z m2602 -42 l29 -6 -44
-34 c-25 -19 -77 -63 -116 -98 -40 -35 -75 -63 -78 -63 -12 0 6 76 26 107 11
18 38 48 61 68 41 35 60 39 122 26z m-2243 -151 c-49 -49 -97 -90 -106 -90
-28 0 -31 30 -5 55 19 19 186 125 197 125 1 0 -37 -40 -86 -90z m-192 45 c-36
-96 -55 -113 -107 -99 -19 5 -15 12 45 65 36 32 67 59 69 59 1 0 -2 -11 -7
-25z m2914 -64 c38 -20 71 -42 73 -48 2 -6 -12 -17 -33 -23 -29 -10 -38 -10
-48 1 -7 8 -35 38 -62 68 -42 46 -45 53 -24 46 14 -4 56 -24 94 -44z m-1133
-44 c-21 -49 -41 -62 -41 -27 0 27 28 92 43 102 20 13 19 -25 -2 -75z m-541
29 c6 -24 10 -52 8 -62 -3 -15 -9 -9 -26 23 -25 48 -28 83 -8 83 7 0 19 -19
26 -44z m64 -4 c25 -51 28 -102 10 -174 -17 -65 -17 -69 -1 -86 14 -14 30 -16
80 -13 73 5 129 5 213 0 73 -4 99 10 90 50 -24 109 -26 128 -16 171 6 25 19
55 28 67 16 22 17 16 20 -131 4 -213 18 -201 -220 -203 -100 0 -191 1 -201 4
-9 2 -24 18 -33 34 -13 25 -14 54 -8 174 4 80 11 142 16 139 4 -3 14 -17 22
-32z m-1585 -11 c13 -31 80 -101 82 -85 1 5 2 18 3 29 1 13 9 21 25 23 29 4
181 -42 241 -74 25 -13 59 -26 75 -30 28 -7 26 -8 -30 -21 -33 -8 -64 -18 -68
-22 -4 -4 14 -28 40 -53 44 -40 55 -45 112 -51 123 -13 270 -62 406 -134 64
-34 154 -108 143 -118 -2 -3 -49 17 -104 44 -179 89 -307 130 -459 146 -55 6
-64 11 -121 64 -64 59 -144 113 -114 76 14 -16 13 -17 -6 -11 -14 4 -33 -3
-62 -25 -39 -29 -53 -49 -33 -49 14 0 387 -387 434 -450 23 -32 22 -42 -7 -69
-23 -22 -25 -22 -50 -6 -29 20 -31 25 -13 45 10 12 9 12 -6 1 -30 -23 -31 -3
-2 35 l27 36 -23 16 c-83 56 -349 342 -388 416 -22 42 -22 48 -9 64 17 19 30
72 17 72 -4 0 -22 -18 -40 -41 -17 -22 -35 -37 -39 -32 -12 13 -59 156 -61
183 -3 59 11 68 30 21z m582 -37 c127 -38 274 -133 474 -307 256 -223 592
-554 701 -691 l27 -34 91 107 c173 202 604 616 759 727 l50 36 -7 -28 c-6 -23
-3 -21 26 17 22 29 57 56 103 81 75 40 255 108 285 108 23 0 57 -49 38 -54 -7
-2 -44 -12 -81 -21 -107 -27 -285 -124 -364 -198 -17 -16 -36 -26 -42 -23 -5
4 -20 -2 -33 -13 -13 -11 -40 -32 -60 -48 -175 -134 -502 -455 -653 -642 -55
-69 -105 -126 -111 -128 -6 -2 -33 25 -60 59 -220 283 -624 680 -761 749 -27
13 -73 42 -103 65 -170 126 -259 169 -371 181 -33 3 -59 11 -59 16 0 21 44 57
70 57 14 0 51 -7 81 -16z m1301 -107 c-26 -44 -56 -67 -93 -73 -40 -7 -76 17
-106 68 l-19 33 117 0 117 0 -16 -28z m798 19 c0 -2 -7 -7 -16 -10 -8 -3 -12
-2 -9 4 6 10 25 14 25 6z m-2695 -52 c17 -40 20 -84 6 -84 -4 0 -11 15 -15 33
-3 17 -9 44 -12 60 -9 39 3 34 21 -9z m1518 -54 c6 -67 36 -125 70 -136 28 -9
386 -9 415 0 41 13 66 64 67 133 0 44 4 63 13 63 23 0 25 -30 7 -97 -25 -91
-63 -131 -187 -193 -55 -28 -106 -50 -114 -50 -20 0 -204 98 -233 123 -49 45
-99 186 -74 210 19 20 31 3 36 -53z m1097 36 c0 -3 -4 -8 -10 -11 -5 -3 -10
-1 -10 4 0 6 5 11 10 11 6 0 10 -2 10 -4z m840 -110 c0 -26 -117 -161 -242
-281 l-126 -120 24 -34 c22 -32 22 -35 6 -47 -24 -19 -33 -17 -67 10 l-29 24
24 27 c14 16 77 82 140 149 63 67 148 158 189 204 41 45 75 82 77 82 2 0 4 -6
4 -14z m-1397 -155 c-52 -85 -147 -248 -199 -344 -32 -59 -62 -106 -68 -104
-6 2 -31 41 -56 88 -25 46 -63 116 -83 154 -58 107 -11 39 64 -92 36 -63 69
-115 75 -116 5 0 24 26 43 59 123 214 229 384 238 384 3 0 -3 -13 -14 -29z
m-453 -344 c0 -5 -4 -5 -10 -2 -5 3 -10 14 -10 23 0 15 2 15 10 2 5 -8 10 -19
10 -23z m21 -10 c-6 -8 -7 -18 -3 -22 4 -5 1 -5 -6 -1 -10 6 -10 11 -1 22 6 8
14 14 16 14 3 0 0 -6 -6 -13z m344 -17 c3 -5 1 -10 -4 -10 -6 0 -11 5 -11 10
0 6 2 10 4 10 3 0 8 -4 11 -10z m-295 -32 c0 -4 7 -8 15 -8 18 0 36 -32 26
-49 -6 -9 -11 -8 -21 4 -9 11 -9 15 -1 15 7 0 10 4 6 10 -3 5 -11 7 -18 4 -7
-2 -21 4 -31 15 -18 19 -17 20 3 18 12 -1 21 -5 21 -9z"/>
<path d="M2830 10403 c-260 -17 -502 -74 -735 -173 -98 -41 -250 -123 -261
-141 -7 -12 25 0 56 21 129 88 468 206 695 241 166 26 504 36 670 20 273 -26
512 -95 776 -222 80 -39 154 -69 165 -67 22 4 -207 119 -353 177 -293 116
-660 168 -1013 144z"/>
<path d="M2950 10286 c-133 -79 -331 -186 -405 -219 -139 -61 -156 -67 -209
-68 -28 -1 -64 -4 -80 -8 -24 -5 -26 -8 -15 -17 8 -7 36 -16 63 -22 39 -8 58
-7 100 8 79 27 276 129 445 229 83 50 154 91 157 91 3 0 70 -38 148 -84 259
-154 458 -246 529 -246 36 0 107 20 107 31 0 4 -33 10 -72 14 -102 9 -166 29
-282 87 -108 54 -404 215 -421 228 -6 5 -34 -6 -65 -24z"/>
<path d="M1125 8325 c16 -45 63 -204 75 -252 11 -50 22 -64 34 -44 3 4 1 21
-4 37 -56 181 -76 236 -93 256 -16 20 -18 20 -12 3z"/>
<path d="M1077 8054 c-6 -34 -3 -39 18 -31 19 8 19 18 1 42 -12 17 -13 16 -19
-11z"/>
<path d="M1070 7952 c0 -6 10 -23 23 -37 l23 -27 13 26 c8 14 12 28 9 31 -11
11 -68 17 -68 7z"/>
<path d="M3252 9595 c0 -16 2 -22 5 -12 2 9 2 23 0 30 -3 6 -5 -1 -5 -18z"/>
<path d="M3512 9055 c-7 -15 -11 -30 -8 -32 7 -7 28 36 24 49 -2 6 -9 -2 -16
-17z"/>
<path d="M3787 9282 c-3 -4 1 -13 9 -19 7 -7 15 -9 17 -5 3 4 -1 13 -9 19 -7
7 -15 9 -17 5z"/>
<path d="M3210 8395 c0 -6 30 -18 70 -29 19 -5 16 -2 -10 13 -34 20 -60 26
-60 16z"/>
<path d="M3342 8214 c20 -28 50 -76 67 -105 20 -34 31 -47 31 -34 0 30 -53
115 -96 155 l-38 35 36 -51z"/>
<path d="M2646 8197 c-27 -36 -56 -98 -55 -119 0 -7 11 11 24 40 13 29 34 66
45 82 29 41 17 38 -14 -3z"/>
<path d="M1065 10549 c-4 -6 -5 -12 -2 -15 2 -3 7 2 10 11 7 17 1 20 -8 4z"/>
<path d="M1062 10450 c0 -19 2 -27 5 -17 2 9 2 25 0 35 -3 9 -5 1 -5 -18z"/>
<path d="M1071 10384 c0 -11 3 -14 6 -6 3 7 2 16 -1 19 -3 4 -6 -2 -5 -13z"/>
<path d="M1101 10284 c0 -11 3 -14 6 -6 3 7 2 16 -1 19 -3 4 -6 -2 -5 -13z"/>
<path d="M1111 10244 c0 -11 3 -14 6 -6 3 7 2 16 -1 19 -3 4 -6 -2 -5 -13z"/>
<path d="M1121 10204 c0 -11 3 -14 6 -6 3 7 2 16 -1 19 -3 4 -6 -2 -5 -13z"/>
<path d="M1172 10015 c0 -11 3 -29 8 -40 11 -25 11 1 0 35 -6 20 -8 21 -8 5z"/>
<path d="M1090 9854 c-12 -41 -11 -54 8 -118 24 -83 25 -81 -43 -281 -62 -182
-125 -336 -141 -342 -8 -3 -54 15 -103 40 l-90 45 -6 -42 c-21 -146 -4 -769
26 -941 41 -237 135 -508 252 -720 64 -117 63 -97 -3 34 -148 297 -212 503
-251 806 -13 101 -18 829 -6 841 3 4 18 -3 34 -13 35 -24 126 -63 148 -63 23
0 64 97 152 359 46 138 71 226 65 230 -19 12 -34 95 -28 154 3 31 4 57 2 57
-2 0 -9 -21 -16 -46z"/>
<path d="M4879 9864 c21 -41 21 -101 0 -88 -5 3 -9 -2 -9 -10 0 -22 17 -20 30
3 19 36 12 86 -16 112 l-26 24 21 -41z"/>
<path d="M4792 9820 c0 -14 2 -19 5 -12 2 6 2 18 0 25 -3 6 -5 1 -5 -13z"/>
<path d="M4896 9714 c-15 -39 -2 -106 55 -284 65 -208 100 -303 106 -296 2 2
-14 55 -35 118 -83 235 -125 386 -119 434 5 46 3 54 -7 28z"/>
<path d="M8686 9344 c-3 -9 -6 -83 -6 -165 l0 -150 73 3 c39 2 71 6 70 11 -2
4 -3 77 -3 162 l0 155 -64 0 c-49 0 -65 -4 -70 -16z"/>
<path d="M5195 9134 c-97 -47 -121 -53 -128 -29 -3 11 -4 10 -3 -2 3 -28 56
-20 142 21 42 20 78 36 81 36 3 0 3 -172 0 -382 -6 -379 -11 -456 -51 -688
-26 -145 -118 -421 -194 -578 -55 -114 -59 -124 -36 -97 31 38 105 209 159
370 52 153 91 319 115 490 14 95 26 905 14 904 -5 0 -49 -20 -99 -45z"/>
<path d="M7667 9164 c-4 -4 -7 -35 -7 -70 0 -53 3 -62 20 -67 19 -5 20 -14 20
-128 l0 -122 128 -129 127 -129 5 -212 5 -212 75 -3 75 -3 -2 218 -3 218 -145
145 -145 145 0 104 0 104 -73 74 c-40 41 -76 71 -80 67z"/>
<path d="M6600 8550 l0 -460 85 0 85 0 0 460 0 460 -85 0 -85 0 0 -460z"/>
<path d="M8262 8927 l-82 -83 33 -32 33 -32 114 115 115 115 -65 0 -65 0 -83
-83z"/>
<path d="M10812 8888 l3 -123 53 0 c28 0 52 3 52 8 0 4 0 59 0 122 l0 115 -55
0 -56 0 3 -122z"/>
<path d="M18937 8994 c-4 -4 -7 -98 -7 -208 0 -166 3 -205 16 -224 8 -12 19
-22 25 -22 6 0 8 87 7 227 -3 196 -5 228 -18 231 -9 1 -19 0 -23 -4z"/>
<path d="M19310 8993 c-1 -7 0 -538 0 -570 0 -10 78 -13 338 -15 l337 -3 3
-23 c5 -36 36 -24 40 15 l3 33 -333 2 -333 3 -5 280 -5 280 -22 3 c-13 2 -23
0 -23 -5z"/>
<path d="M15708 8870 c-2 -67 -1 -124 1 -126 2 -2 58 -4 123 -4 97 0 118 3
118 15 0 11 -18 15 -77 17 l-78 3 -5 105 -5 105 -37 3 -37 3 -3 -121z"/>
<path d="M16087 8983 c-4 -3 -7 -208 -7 -453 0 -371 2 -450 14 -459 9 -8 51
-11 122 -9 94 3 109 5 112 21 3 15 -6 17 -76 17 -64 0 -81 3 -86 16 -3 9 -6
209 -6 445 l0 429 -33 0 c-19 0 -37 -3 -40 -7z"/>
<path d="M16553 8865 c-108 -111 -141 -155 -115 -155 9 0 272 263 272 273 0
28 -52 -10 -157 -118z"/>
<path d="M17190 8871 c0 -75 4 -122 11 -127 16 -9 919 7 919 17 0 5 -192 10
-427 11 l-428 3 -3 108 -3 107 -34 0 -35 0 0 -119z"/>
<path d="M12327 8974 c-4 -4 -7 -61 -7 -126 l0 -118 141 0 c136 0 141 -1 136
-20 -4 -16 0 -20 22 -20 18 0 39 13 66 40 l39 39 -145 3 -144 3 -5 100 -5 100
-45 3 c-25 2 -49 0 -53 -4z"/>
<path d="M13380 8975 c-1 -3 -1 -58 -1 -122 l0 -118 118 0 c103 0 118 2 121
17 3 14 -7 18 -65 20 l-68 3 -3 103 -3 102 -49 0 c-28 0 -50 -2 -50 -5z"/>
<path d="M13759 8973 c0 -5 0 -210 0 -458 l0 -450 421 -3 c398 -2 421 -1 418
15 -3 17 -29 18 -371 21 l-367 2 0 440 0 440 -50 0 c-27 0 -50 -3 -51 -7z"/>
<path d="M14730 8533 c0 -247 4 -454 8 -461 7 -10 97 -12 418 -10 356 3 409 5
409 18 0 13 -49 16 -365 20 l-365 5 -3 438 -2 437 -50 0 -50 0 0 -447z"/>
<path d="M8743 8889 l-63 -68 0 -486 c0 -267 4 -485 8 -485 4 0 35 28 70 63
l61 62 1 490 c1 269 -3 490 -7 491 -4 1 -36 -29 -70 -67z"/>
<path d="M9812 8827 c-29 -29 -49 -56 -46 -60 10 -9 102 -9 106 1 2 4 1 31 -2
60 l-5 53 -53 -54z"/>
<path d="M9216 8759 c3 -6 -23 -41 -61 -79 -62 -62 -68 -73 -73 -118 -2 -27 0
-52 5 -55 7 -5 273 248 273 260 0 2 -34 3 -76 3 -52 0 -73 -3 -68 -11z"/>
<path d="M11478 8759 c6 -7 12 -26 12 -42 0 -28 1 -28 53 -25 l52 3 0 35 0 35
-65 3 c-52 2 -63 1 -52 -9z"/>
<path d="M19610 8760 c0 -6 108 -10 305 -10 197 0 305 4 305 10 0 6 -108 10
-305 10 -197 0 -305 -4 -305 -10z"/>
<path d="M9747 8663 c-4 -3 -7 -55 -7 -113 0 -81 4 -111 14 -119 19 -16 121
-10 120 7 -1 6 -2 62 -2 122 l-2 110 -58 0 c-32 0 -62 -3 -65 -7z"/>
<path d="M10817 8663 c-6 -10 -10 -240 -8 -430 l1 -143 58 0 57 0 -3 277 c-1
153 -4 284 -7 291 -5 13 -91 17 -98 5z"/>
<path d="M15715 8637 c-3 -7 -4 -138 -3 -292 l3 -280 115 0 c96 0 115 3 115
15 0 12 -17 16 -75 20 l-75 5 -3 265 c-2 196 -6 266 -15 272 -19 12 -57 9 -62
-5z"/>
<path d="M17190 8531 c0 -68 4 -122 10 -126 15 -9 910 7 910 16 0 5 -190 10
-422 11 l-423 3 -5 105 -5 105 -32 3 -33 3 0 -120z"/>
<path d="M12333 8634 c-10 -4 -13 -39 -13 -125 l0 -119 265 0 c218 0 265 -2
265 -14 0 -7 -30 -42 -67 -76 -68 -63 -92 -94 -93 -117 0 -7 6 -13 13 -13 13
0 257 240 257 253 0 4 -114 7 -254 7 -193 0 -257 3 -263 13 -4 6 -10 53 -13
102 l-5 90 -40 2 c-22 1 -46 0 -52 -3z"/>
<path d="M13421 8495 l-41 -45 0 -194 c0 -118 4 -196 10 -198 5 -1 59 -2 120
0 98 3 111 5 108 20 -2 13 -18 18 -68 22 l-65 5 -3 218 c-1 119 -6 217 -11
217 -5 0 -27 -20 -50 -45z"/>
<path d="M18560 8518 c0 -13 8 -36 18 -53 23 -38 574 -574 587 -572 5 1 8 16
6 32 -2 24 -57 84 -294 323 -161 160 -298 292 -304 292 -7 0 -13 -10 -13 -22z"/>
<path d="M4894 8510 c-37 -15 -133 -110 -143 -143 -17 -57 -23 -127 -16 -203
4 -41 11 -74 16 -74 5 0 9 31 9 70 0 162 59 287 159 340 26 14 30 19 16 19
-11 0 -29 -4 -41 -9z"/>
<path d="M11180 8412 c0 -14 465 -494 533 -551 16 -12 17 -8 17 47 l0 60 -230
231 -229 231 -46 0 c-37 0 -45 -3 -45 -18z"/>
<path d="M16430 8362 l0 -47 348 -348 c191 -191 350 -347 355 -347 4 0 7 21 7
48 l0 47 -348 348 c-191 191 -350 347 -355 347 -4 0 -7 -21 -7 -48z"/>
<path d="M9751 8326 c-8 -9 -11 -51 -9 -122 l3 -109 65 -3 65 -3 -3 113 c-2
62 -5 119 -7 126 -6 17 -99 16 -114 -2z"/>
<path d="M19315 8320 c-9 -14 -9 -225 0 -240 6 -10 101 -11 444 -6 240 3 442
6 449 6 6 0 12 5 12 10 0 7 -150 10 -430 10 -403 0 -430 1 -431 18 0 9 0 49 1
88 1 39 -2 83 -5 97 -7 27 -28 36 -40 17z"/>
<path d="M17190 8196 l0 -126 460 0 c401 0 460 2 460 15 0 13 -56 15 -422 17
l-423 3 -5 105 -5 105 -32 3 -33 3 0 -125z"/>
<path d="M12332 8302 c-9 -7 -12 -97 -10 -418 l3 -409 50 47 50 47 5 288 c3
158 3 324 0 368 l-5 80 -40 3 c-22 1 -46 -2 -53 -6z"/>
<path d="M4787 7493 c-4 -3 -7 -18 -6 -32 1 -26 1 -25 10 3 9 31 7 41 -4 29z"/>
<path d="M4482 7428 c-34 -34 -62 -66 -62 -72 0 -5 31 22 70 60 38 38 70 70
70 72 0 12 -25 -8 -78 -60z"/>
<path d="M1682 7130 c7 -11 19 -22 28 -25 8 -4 4 5 -9 19 -29 31 -36 33 -19 6z"/>
<path d="M1695 6599 c45 -46 98 -104 119 -129 45 -54 37 -33 -12 30 -49 63
-121 138 -157 163 -16 11 6 -17 50 -64z"/>
<path d="M4314 6598 c-83 -80 -161 -174 -152 -184 3 -2 17 13 32 35 16 22 51
61 80 88 63 59 141 143 132 143 -4 0 -45 -37 -92 -82z"/>
<path d="M4112 6641 c-22 -16 -43 -35 -47 -40 -21 -36 -350 -248 -495 -321
-125 -63 -243 -150 -355 -264 -100 -101 -206 -236 -185 -236 5 0 22 21 38 48
105 168 318 346 557 465 83 41 249 143 320 196 28 21 59 44 71 52 27 18 149
129 142 129 -3 0 -23 -13 -46 -29z"/>
<path d="M2012 6526 c53 -47 210 -142 383 -233 250 -132 323 -187 468 -358 64
-75 90 -102 67 -70 -116 163 -297 323 -450 400 -119 59 -314 170 -407 230 -60
40 -84 52 -61 31z"/>
<path d="M2957 5810 c9 -16 21 -30 25 -30 5 0 -1 14 -14 30 -12 17 -23 30 -25
30 -2 0 4 -13 14 -30z"/>
</g>
</svg>
